<svg xmlns="http://www.w3.org/2000/svg" xmlns:xlink="http://www.w3.org/1999/xlink" viewBox="0,0,255.99431,255.99431" width="50px" height="50px" fill-rule="nonzero"><g transform="translate(51.19886,51.19886) scale(0.6,0.6)"><g fill="#222326" fill-rule="nonzero" stroke="none" stroke-width="1" stroke-linecap="butt" stroke-linejoin="miter" stroke-miterlimit="10" stroke-dasharray="" stroke-dashoffset="0" font-family="none" font-weight="none" font-size="none" text-anchor="none" style="mix-blend-mode: normal"><path d="M-85.33144,341.32574v-426.65718h426.65718v426.65718z" id="bgRectangle"></path></g><g fill="#605f5f" fill-rule="nonzero" stroke="none" stroke-width="1" stroke-linecap="butt" stroke-linejoin="miter" stroke-miterlimit="10" stroke-dasharray="" stroke-dashoffset="0" font-family="none" font-weight="none" font-size="none" text-anchor="none" style="mix-blend-mode: normal"><path d="M127.99715,341.32574c-117.81813,0 -213.32859,-95.51046 -213.32859,-213.32859v0c0,-117.81813 95.51046,-213.32859 213.32859,-213.32859v0c117.81813,0 213.32859,95.51046 213.32859,213.32859v0c0,117.81813 -95.51046,213.32859 -213.32859,213.32859z" id="shape"></path></g><g fill="#ffffff" fill-rule="nonzero" stroke="none" stroke-width="1" stroke-linecap="butt" stroke-linejoin="miter" stroke-miterlimit="10" stroke-dasharray="" stroke-dashoffset="0" font-family="none" font-weight="none" font-size="none" text-anchor="none" style="mix-blend-mode: normal"><g transform="scale(5.12,5.12)"><path d="M16,3c-7.16752,0 -13,5.83248 -13,13v18c0,7.16752 5.83248,13 13,13h18c7.16752,0 13,-5.83248 13,-13v-18c0,-7.16752 -5.83248,-13 -13,-13zM16,5h18c6.08648,0 11,4.91352 11,11v18c0,6.08648 -4.91352,11 -11,11h-18c-6.08648,0 -11,-4.91352 -11,-11v-18c0,-6.08648 4.91352,-11 11,-11zM37,11c-1.10457,0 -2,0.89543 -2,2c0,1.10457 0.89543,2 2,2c1.10457,0 2,-0.89543 2,-2c0,-1.10457 -0.89543,-2 -2,-2zM25,14c-6.06329,0 -11,4.93671 -11,11c0,6.06329 4.93671,11 11,11c6.06329,0 11,-4.93671 11,-11c0,-6.06329 -4.93671,-11 -11,-11zM25,16c4.98241,0 9,4.01759 9,9c0,4.98241 -4.01759,9 -9,9c-4.98241,0 -9,-4.01759 -9,-9c0,-4.98241 4.01759,-9 9,-9z"></path></g></g></g></svg>